<?xml version="1.0"?>
<svg xmlns="http://www.w3.org/2000/svg" xmlns:xlink="http://www.w3.org/1999/xlink" version="1.1" id="Layer_1" x="0px" y="0px" viewBox="0 0 512 512" style="enable-background:new 0 0 512 512;" xml:space="preserve" width="512px" height="512px" class=""><g><g>
	<g>
		<g>
			<path d="M19.523,384h472.955c3.726,0,7.18-1.917,9.143-5.063c1.963-3.146,2.141-7.073,0.472-10.375l-32.759-61.75V106.667     c0-23.531-17.637-42.667-41.35-42.667H84.016c-23.713,0-41.35,19.135-41.35,42.667v200.146l-32.759,61.75     c-1.669,3.302-1.491,7.229,0.472,10.375C12.343,382.083,15.796,384,19.523,384z M85.333,106.667h341.333v192H85.333V106.667z" data-original="#000000" class="active-path" data-old_color="#000000" fill="#FFFFFF"/>
			<path d="M510.039,409.854c-2.015-2.833-5.291-4.521-8.786-4.521H318.646c-2.855,0-5.584,1.125-7.6,3.125l-4.451,4.417     c-2.005,1.99-4.776,3.125-7.6,3.125h-85.992c-2.824,0-5.595-1.135-7.6-3.125l-4.451-4.417c-2.015-2-4.745-3.125-7.6-3.125H10.747     c-3.496,0-6.771,1.688-8.786,4.521c-2.005,2.823-2.509,6.448-1.344,9.719C6.706,436.573,22.945,448,41.021,448h429.959     c18.076,0,34.315-11.427,40.403-28.427C512.548,416.302,512.044,412.677,510.039,409.854z" data-original="#000000" class="active-path" data-old_color="#000000" fill="#FFFFFF"/>
		</g>
	</g>
</g></g> </svg>
